<svg xmlns="http://www.w3.org/2000/svg" version="1.1" xmlns:xlink="http://www.w3.org/1999/xlink" xmlns:svgjs="http://svgjs.com/svgjs" width="1440" height="560" preserveAspectRatio="none" viewBox="0 0 1440 560"><g mask="url(&quot;#SvgjsMask1258&quot;)" fill="none"><rect width="1440" height="560" x="0" y="0" fill="rgba(255, 95, 109, 1)"></rect><path d="M526.972,586.512C561.541,588.642,599.792,586.519,619.68,558.163C642.104,526.192,645.41,481.231,623.473,448.924C603.346,419.282,562.695,418.879,526.972,421.631C497.007,423.939,468.518,436.189,453.191,462.041C437.557,488.411,436.511,521.47,452.143,547.841C467.488,573.728,496.936,584.661,526.972,586.512" fill="rgba(255, 195, 113, 1)" class="triangle-float2"></path><path d="M874.148,504.068C909.625,505.583,943.12,487.733,962.057,457.695C982.38,425.458,990.946,383.466,970.419,351.359C950.946,320.9,910.299,319.952,874.148,320.189C838.59,320.423,797.903,321.86,780.044,352.609C762.139,383.438,779.532,420.422,798.347,450.704C815.826,478.835,841.059,502.655,874.148,504.068" fill="rgba(255, 195, 113, 1)" class="triangle-float2"></path><path d="M1266.736,552.648C1305.514,552.784,1348.65,551.008,1369.758,518.478C1392.265,483.793,1386.009,437.84,1363.911,402.894C1343.272,370.255,1305.351,355.151,1266.736,355.56C1228.91,355.96,1193.166,372.872,1173.06,404.914C1151.577,439.151,1143.314,483.624,1164.959,517.759C1185.543,550.221,1228.298,552.513,1266.736,552.648" fill="rgba(255, 195, 113, 1)" class="triangle-float2"></path><path d="M434.105,295.783C483.487,298.056,527.77,264.887,550.52,220.999C571.626,180.283,562.041,132.878,539.151,93.138C516.212,53.313,480.06,19.52,434.105,18.884C387.219,18.235,345.407,48.493,323.896,90.158C303.997,128.701,314.391,172.841,334.882,211.073C356.901,252.155,387.543,293.64,434.105,295.783" fill="rgba(255, 195, 113, 1)" class="triangle-float1"></path><path d="M1135.874,434.625C1165.165,433.857,1186.945,410.85,1201.48,385.409C1215.873,360.218,1223.709,330.298,1210.125,304.662C1195.766,277.564,1166.525,260.611,1135.874,261.595C1106.696,262.532,1083.785,283.75,1069.446,309.179C1055.404,334.081,1050.647,363.749,1064.025,389.013C1078.254,415.883,1105.479,435.422,1135.874,434.625" fill="rgba(255, 195, 113, 1)" class="triangle-float2"></path><path d="M93.496,406.288C136.561,409.627,185.351,400.54,206.291,362.761C226.859,325.654,203.594,283.061,182.059,246.507C160.989,210.742,134.967,173.093,93.496,171.3C49.682,169.405,9.86,198.831,-9.406,238.228C-26.734,273.661,-13.19,313.704,7.407,347.342C26.872,379.131,56.333,403.407,93.496,406.288" fill="rgba(255, 195, 113, 1)" class="triangle-float2"></path><path d="M355.17,330.874C381.916,331.445,407.303,319.137,421.763,296.63C437.533,272.083,443.598,240.815,429.407,215.323C414.89,189.245,385.016,176.925,355.17,177.007C325.48,177.089,295.526,189.488,281.641,215.731C268.437,240.686,278.135,270.091,293.33,293.886C307.186,315.583,329.432,330.324,355.17,330.874" fill="rgba(255, 195, 113, 1)" class="triangle-float2"></path></g><defs><mask id="SvgjsMask1258"><rect width="1440" height="560" fill="#ffffff"></rect></mask><style>
            @keyframes float1 {
                0%{transform: translate(0, 0)}
                50%{transform: translate(-10px, 0)}
                100%{transform: translate(0, 0)}
            }

            .triangle-float1 {
                animation: float1 5s infinite;
            }

            @keyframes float2 {
                0%{transform: translate(0, 0)}
                50%{transform: translate(-5px, -5px)}
                100%{transform: translate(0, 0)}
            }

            .triangle-float2 {
                animation: float2 4s infinite;
            }

            @keyframes float3 {
                0%{transform: translate(0, 0)}
                50%{transform: translate(0, -10px)}
                100%{transform: translate(0, 0)}
            }

            .triangle-float3 {
                animation: float3 6s infinite;
            }
        </style></defs></svg>