<svg xmlns="http://www.w3.org/2000/svg" version="1.1" xmlns:xlink="http://www.w3.org/1999/xlink" xmlns:svgjs="http://svgjs.com/svgjs" width="1440" height="560" preserveAspectRatio="none" viewBox="0 0 1440 560"><g mask="url(&quot;#SvgjsMask1006&quot;)" fill="none"><path d="M-40.18 369.17L-40.18 369.17" stroke="rgba(255, 195, 113, 1)" stroke-width="1.5"></path><path d="M-40.18 369.17L72.77 401.91" stroke="rgba(255, 195, 113, 1)" stroke-width="1.5"></path><path d="M-40.18 369.17L37.98 530.36" stroke="rgba(255, 195, 113, 1)" stroke-width="1.5"></path><path d="M-40.18 369.17L-76.15 559.61" stroke="rgba(255, 195, 113, 1)" stroke-width="1.5"></path><path d="M-76.15 559.61L-76.15 559.61" stroke="rgba(255, 195, 113, 1)" stroke-width="1.5"></path><path d="M-76.15 559.61L-85.57 638.42" stroke="rgba(255, 195, 113, 1)" stroke-width="1.5"></path><path d="M-76.15 559.61L37.98 530.36" stroke="rgba(255, 195, 113, 1)" stroke-width="1.5"></path><path d="M-85.57 638.42L-85.57 638.42" stroke="rgba(255, 195, 113, 1)" stroke-width="1.5"></path><path d="M-85.57 638.42L72.52 641.78" stroke="rgba(255, 195, 113, 1)" stroke-width="1.5"></path><path d="M-85.57 638.42L37.98 530.36" stroke="rgba(255, 195, 113, 1)" stroke-width="1.5"></path><path d="M-85.57 638.42L-40.18 369.17" stroke="rgba(255, 195, 113, 1)" stroke-width="1.5"></path><path d="M-85.57 638.42L72.77 401.91" stroke="rgba(255, 195, 113, 1)" stroke-width="1.5"></path><path d="M72.77 401.91L72.77 401.91" stroke="rgba(255, 195, 113, 1)" stroke-width="1.5"></path><path d="M72.77 401.91L37.98 530.36" stroke="rgba(255, 195, 113, 1)" stroke-width="1.5"></path><path d="M37.98 530.36L37.98 530.36" stroke="rgba(255, 195, 113, 1)" stroke-width="1.5"></path><path d="M37.98 530.36L72.52 641.78" stroke="rgba(255, 195, 113, 1)" stroke-width="1.5"></path><path d="M37.98 530.36L229.16 560.83" stroke="rgba(255, 195, 113, 1)" stroke-width="1.5"></path><path d="M72.52 641.78L72.52 641.78" stroke="rgba(255, 195, 113, 1)" stroke-width="1.5"></path><path d="M72.52 641.78L-76.15 559.61" stroke="rgba(255, 195, 113, 1)" stroke-width="1.5"></path><path d="M72.52 641.78L229.16 560.83" stroke="rgba(255, 195, 113, 1)" stroke-width="1.5"></path><path d="M72.52 641.78L246.18 695.7" stroke="rgba(255, 195, 113, 1)" stroke-width="1.5"></path><path d="M72.52 641.78L72.77 401.91" stroke="rgba(255, 195, 113, 1)" stroke-width="1.5"></path><path d="M261.13 343.72L261.13 343.72" stroke="rgba(255, 195, 113, 1)" stroke-width="1.5"></path><path d="M261.13 343.72L380.1 354.34" stroke="rgba(255, 195, 113, 1)" stroke-width="1.5"></path><path d="M261.13 343.72L364.34 510.87" stroke="rgba(255, 195, 113, 1)" stroke-width="1.5"></path><path d="M261.13 343.72L72.77 401.91" stroke="rgba(255, 195, 113, 1)" stroke-width="1.5"></path><path d="M261.13 343.72L229.16 560.83" stroke="rgba(255, 195, 113, 1)" stroke-width="1.5"></path><path d="M261.13 343.72L550.39 349.22" stroke="rgba(255, 195, 113, 1)" stroke-width="1.5"></path><path d="M261.13 343.72L37.98 530.36" stroke="rgba(255, 195, 113, 1)" stroke-width="1.5"></path><path d="M229.16 560.83L229.16 560.83" stroke="rgba(255, 195, 113, 1)" stroke-width="1.5"></path><path d="M229.16 560.83L246.18 695.7" stroke="rgba(255, 195, 113, 1)" stroke-width="1.5"></path><path d="M229.16 560.83L364.34 510.87" stroke="rgba(255, 195, 113, 1)" stroke-width="1.5"></path><path d="M246.18 695.7L246.18 695.7" stroke="rgba(255, 195, 113, 1)" stroke-width="1.5"></path><path d="M246.18 695.7L394.47 675.64" stroke="rgba(255, 195, 113, 1)" stroke-width="1.5"></path><path d="M246.18 695.7L364.34 510.87" stroke="rgba(255, 195, 113, 1)" stroke-width="1.5"></path><path d="M246.18 695.7L37.98 530.36" stroke="rgba(255, 195, 113, 1)" stroke-width="1.5"></path><path d="M380.1 354.34L380.1 354.34" stroke="rgba(255, 195, 113, 1)" stroke-width="1.5"></path><path d="M380.1 354.34L364.34 510.87" stroke="rgba(255, 195, 113, 1)" stroke-width="1.5"></path><path d="M380.1 354.34L550.39 349.22" stroke="rgba(255, 195, 113, 1)" stroke-width="1.5"></path><path d="M380.1 354.34L505.68 522.27" stroke="rgba(255, 195, 113, 1)" stroke-width="1.5"></path><path d="M364.34 510.87L364.34 510.87" stroke="rgba(255, 195, 113, 1)" stroke-width="1.5"></path><path d="M364.34 510.87L505.68 522.27" stroke="rgba(255, 195, 113, 1)" stroke-width="1.5"></path><path d="M364.34 510.87L394.47 675.64" stroke="rgba(255, 195, 113, 1)" stroke-width="1.5"></path><path d="M394.47 675.64L394.47 675.64" stroke="rgba(255, 195, 113, 1)" stroke-width="1.5"></path><path d="M394.47 675.64L549.56 693.01" stroke="rgba(255, 195, 113, 1)" stroke-width="1.5"></path><path d="M550.39 349.22L550.39 349.22" stroke="rgba(255, 195, 113, 1)" stroke-width="1.5"></path><path d="M550.39 349.22L505.68 522.27" stroke="rgba(255, 195, 113, 1)" stroke-width="1.5"></path><path d="M505.68 522.27L505.68 522.27" stroke="rgba(255, 195, 113, 1)" stroke-width="1.5"></path><path d="M505.68 522.27L649.75 531.16" stroke="rgba(255, 195, 113, 1)" stroke-width="1.5"></path><path d="M549.56 693.01L549.56 693.01" stroke="rgba(255, 195, 113, 1)" stroke-width="1.5"></path><path d="M549.56 693.01L683.3 658.69" stroke="rgba(255, 195, 113, 1)" stroke-width="1.5"></path><path d="M549.56 693.01L505.68 522.27" stroke="rgba(255, 195, 113, 1)" stroke-width="1.5"></path><path d="M549.56 693.01L649.75 531.16" stroke="rgba(255, 195, 113, 1)" stroke-width="1.5"></path><path d="M549.56 693.01L364.34 510.87" stroke="rgba(255, 195, 113, 1)" stroke-width="1.5"></path><path d="M549.56 693.01L813.53 711.86" stroke="rgba(255, 195, 113, 1)" stroke-width="1.5"></path><path d="M649.75 531.16L649.75 531.16" stroke="rgba(255, 195, 113, 1)" stroke-width="1.5"></path><path d="M649.75 531.16L683.3 658.69" stroke="rgba(255, 195, 113, 1)" stroke-width="1.5"></path><path d="M649.75 531.16L792.36 506.75" stroke="rgba(255, 195, 113, 1)" stroke-width="1.5"></path><path d="M649.75 531.16L550.39 349.22" stroke="rgba(255, 195, 113, 1)" stroke-width="1.5"></path><path d="M649.75 531.16L801.07 373.33" stroke="rgba(255, 195, 113, 1)" stroke-width="1.5"></path><path d="M683.3 658.69L683.3 658.69" stroke="rgba(255, 195, 113, 1)" stroke-width="1.5"></path><path d="M683.3 658.69L813.53 711.86" stroke="rgba(255, 195, 113, 1)" stroke-width="1.5"></path><path d="M683.3 658.69L792.36 506.75" stroke="rgba(255, 195, 113, 1)" stroke-width="1.5"></path><path d="M683.3 658.69L505.68 522.27" stroke="rgba(255, 195, 113, 1)" stroke-width="1.5"></path><path d="M818.35 233.95L818.35 233.95" stroke="rgba(255, 195, 113, 1)" stroke-width="1.5"></path><path d="M818.35 233.95L801.07 373.33" stroke="rgba(255, 195, 113, 1)" stroke-width="1.5"></path><path d="M818.35 233.95L957.81 75.48" stroke="rgba(255, 195, 113, 1)" stroke-width="1.5"></path><path d="M818.35 233.95L1001.77 389.89" stroke="rgba(255, 195, 113, 1)" stroke-width="1.5"></path><path d="M801.07 373.33L801.07 373.33" stroke="rgba(255, 195, 113, 1)" stroke-width="1.5"></path><path d="M801.07 373.33L792.36 506.75" stroke="rgba(255, 195, 113, 1)" stroke-width="1.5"></path><path d="M801.07 373.33L1001.77 389.89" stroke="rgba(255, 195, 113, 1)" stroke-width="1.5"></path><path d="M792.36 506.75L792.36 506.75" stroke="rgba(255, 195, 113, 1)" stroke-width="1.5"></path><path d="M792.36 506.75L985.48 491.91" stroke="rgba(255, 195, 113, 1)" stroke-width="1.5"></path><path d="M792.36 506.75L813.53 711.86" stroke="rgba(255, 195, 113, 1)" stroke-width="1.5"></path><path d="M792.36 506.75L953.03 663.89" stroke="rgba(255, 195, 113, 1)" stroke-width="1.5"></path><path d="M813.53 711.86L813.53 711.86" stroke="rgba(255, 195, 113, 1)" stroke-width="1.5"></path><path d="M813.53 711.86L953.03 663.89" stroke="rgba(255, 195, 113, 1)" stroke-width="1.5"></path><path d="M955.19 -102.21L955.19 -102.21" stroke="rgba(255, 195, 113, 1)" stroke-width="1.5"></path><path d="M955.19 -102.21L957.81 75.48" stroke="rgba(255, 195, 113, 1)" stroke-width="1.5"></path><path d="M955.19 -102.21L1139.49 -64.07" stroke="rgba(255, 195, 113, 1)" stroke-width="1.5"></path><path d="M955.19 -102.21L1152 48.9" stroke="rgba(255, 195, 113, 1)" stroke-width="1.5"></path><path d="M957.81 75.48L957.81 75.48" stroke="rgba(255, 195, 113, 1)" stroke-width="1.5"></path><path d="M957.81 75.48L1152 48.9" stroke="rgba(255, 195, 113, 1)" stroke-width="1.5"></path><path d="M957.81 75.48L1139.49 -64.07" stroke="rgba(255, 195, 113, 1)" stroke-width="1.5"></path><path d="M957.81 75.48L1122.62 252.61" stroke="rgba(255, 195, 113, 1)" stroke-width="1.5"></path><path d="M957.81 75.48L1243.12 93.11" stroke="rgba(255, 195, 113, 1)" stroke-width="1.5"></path><path d="M1001.77 389.89L1001.77 389.89" stroke="rgba(255, 195, 113, 1)" stroke-width="1.5"></path><path d="M1001.77 389.89L985.48 491.91" stroke="rgba(255, 195, 113, 1)" stroke-width="1.5"></path><path d="M1001.77 389.89L1117.87 359.79" stroke="rgba(255, 195, 113, 1)" stroke-width="1.5"></path><path d="M1001.77 389.89L1122.62 252.61" stroke="rgba(255, 195, 113, 1)" stroke-width="1.5"></path><path d="M1001.77 389.89L1124.75 532.58" stroke="rgba(255, 195, 113, 1)" stroke-width="1.5"></path><path d="M985.48 491.91L985.48 491.91" stroke="rgba(255, 195, 113, 1)" stroke-width="1.5"></path><path d="M985.48 491.91L1124.75 532.58" stroke="rgba(255, 195, 113, 1)" stroke-width="1.5"></path><path d="M985.48 491.91L953.03 663.89" stroke="rgba(255, 195, 113, 1)" stroke-width="1.5"></path><path d="M985.48 491.91L1117.87 359.79" stroke="rgba(255, 195, 113, 1)" stroke-width="1.5"></path><path d="M953.03 663.89L953.03 663.89" stroke="rgba(255, 195, 113, 1)" stroke-width="1.5"></path><path d="M953.03 663.89L1112.1 680.6" stroke="rgba(255, 195, 113, 1)" stroke-width="1.5"></path><path d="M953.03 663.89L1124.75 532.58" stroke="rgba(255, 195, 113, 1)" stroke-width="1.5"></path><path d="M1139.49 -64.07L1139.49 -64.07" stroke="rgba(255, 195, 113, 1)" stroke-width="1.5"></path><path d="M1139.49 -64.07L1152 48.9" stroke="rgba(255, 195, 113, 1)" stroke-width="1.5"></path><path d="M1139.49 -64.07L1289.07 -99.19" stroke="rgba(255, 195, 113, 1)" stroke-width="1.5"></path><path d="M1152 48.9L1152 48.9" stroke="rgba(255, 195, 113, 1)" stroke-width="1.5"></path><path d="M1152 48.9L1243.12 93.11" stroke="rgba(255, 195, 113, 1)" stroke-width="1.5"></path><path d="M1152 48.9L1289.07 -99.19" stroke="rgba(255, 195, 113, 1)" stroke-width="1.5"></path><path d="M1122.62 252.61L1122.62 252.61" stroke="rgba(255, 195, 113, 1)" stroke-width="1.5"></path><path d="M1122.62 252.61L1117.87 359.79" stroke="rgba(255, 195, 113, 1)" stroke-width="1.5"></path><path d="M1122.62 252.61L1255.31 244.55" stroke="rgba(255, 195, 113, 1)" stroke-width="1.5"></path><path d="M1122.62 252.61L1242.41 387.02" stroke="rgba(255, 195, 113, 1)" stroke-width="1.5"></path><path d="M1117.87 359.79L1117.87 359.79" stroke="rgba(255, 195, 113, 1)" stroke-width="1.5"></path><path d="M1117.87 359.79L1242.41 387.02" stroke="rgba(255, 195, 113, 1)" stroke-width="1.5"></path><path d="M1117.87 359.79L1124.75 532.58" stroke="rgba(255, 195, 113, 1)" stroke-width="1.5"></path><path d="M1117.87 359.79L1255.31 244.55" stroke="rgba(255, 195, 113, 1)" stroke-width="1.5"></path><path d="M1124.75 532.58L1124.75 532.58" stroke="rgba(255, 195, 113, 1)" stroke-width="1.5"></path><path d="M1124.75 532.58L1259.09 513.48" stroke="rgba(255, 195, 113, 1)" stroke-width="1.5"></path><path d="M1112.1 680.6L1112.1 680.6" stroke="rgba(255, 195, 113, 1)" stroke-width="1.5"></path><path d="M1112.1 680.6L1124.75 532.58" stroke="rgba(255, 195, 113, 1)" stroke-width="1.5"></path><path d="M1289.07 -99.19L1289.07 -99.19" stroke="rgba(255, 195, 113, 1)" stroke-width="1.5"></path><path d="M1289.07 -99.19L1243.12 93.11" stroke="rgba(255, 195, 113, 1)" stroke-width="1.5"></path><path d="M1289.07 -99.19L1443.62 64.88" stroke="rgba(255, 195, 113, 1)" stroke-width="1.5"></path><path d="M1289.07 -99.19L1542.33 -78.45" stroke="rgba(255, 195, 113, 1)" stroke-width="1.5"></path><path d="M1243.12 93.11L1243.12 93.11" stroke="rgba(255, 195, 113, 1)" stroke-width="1.5"></path><path d="M1243.12 93.11L1255.31 244.55" stroke="rgba(255, 195, 113, 1)" stroke-width="1.5"></path><path d="M1243.12 93.11L1139.49 -64.07" stroke="rgba(255, 195, 113, 1)" stroke-width="1.5"></path><path d="M1255.31 244.55L1255.31 244.55" stroke="rgba(255, 195, 113, 1)" stroke-width="1.5"></path><path d="M1255.31 244.55L1242.41 387.02" stroke="rgba(255, 195, 113, 1)" stroke-width="1.5"></path><path d="M1242.41 387.02L1242.41 387.02" stroke="rgba(255, 195, 113, 1)" stroke-width="1.5"></path><path d="M1242.41 387.02L1259.09 513.48" stroke="rgba(255, 195, 113, 1)" stroke-width="1.5"></path><path d="M1242.41 387.02L1124.75 532.58" stroke="rgba(255, 195, 113, 1)" stroke-width="1.5"></path><path d="M1259.09 513.48L1259.09 513.48" stroke="rgba(255, 195, 113, 1)" stroke-width="1.5"></path><path d="M1285.12 696.94L1285.12 696.94" stroke="rgba(255, 195, 113, 1)" stroke-width="1.5"></path><path d="M1285.12 696.94L1441.63 702.55" stroke="rgba(255, 195, 113, 1)" stroke-width="1.5"></path><path d="M1285.12 696.94L1112.1 680.6" stroke="rgba(255, 195, 113, 1)" stroke-width="1.5"></path><path d="M1285.12 696.94L1259.09 513.48" stroke="rgba(255, 195, 113, 1)" stroke-width="1.5"></path><path d="M1443.62 64.88L1443.62 64.88" stroke="rgba(255, 195, 113, 1)" stroke-width="1.5"></path><path d="M1443.62 64.88L1565.07 57.95" stroke="rgba(255, 195, 113, 1)" stroke-width="1.5"></path><path d="M1443.62 64.88L1419.78 224.02" stroke="rgba(255, 195, 113, 1)" stroke-width="1.5"></path><path d="M1419.78 224.02L1419.78 224.02" stroke="rgba(255, 195, 113, 1)" stroke-width="1.5"></path><path d="M1419.78 224.02L1539.53 231.37" stroke="rgba(255, 195, 113, 1)" stroke-width="1.5"></path><path d="M1419.78 224.02L1444.7 358.03" stroke="rgba(255, 195, 113, 1)" stroke-width="1.5"></path><path d="M1419.78 224.02L1255.31 244.55" stroke="rgba(255, 195, 113, 1)" stroke-width="1.5"></path><path d="M1419.78 224.02L1554.8 351.61" stroke="rgba(255, 195, 113, 1)" stroke-width="1.5"></path><path d="M1444.7 358.03L1444.7 358.03" stroke="rgba(255, 195, 113, 1)" stroke-width="1.5"></path><path d="M1444.7 358.03L1554.8 351.61" stroke="rgba(255, 195, 113, 1)" stroke-width="1.5"></path><path d="M1444.7 358.03L1539.53 231.37" stroke="rgba(255, 195, 113, 1)" stroke-width="1.5"></path><path d="M1444.7 358.03L1450.25 548.92" stroke="rgba(255, 195, 113, 1)" stroke-width="1.5"></path><path d="M1444.7 358.03L1242.41 387.02" stroke="rgba(255, 195, 113, 1)" stroke-width="1.5"></path><path d="M1450.25 548.92L1450.25 548.92" stroke="rgba(255, 195, 113, 1)" stroke-width="1.5"></path><path d="M1450.25 548.92L1441.63 702.55" stroke="rgba(255, 195, 113, 1)" stroke-width="1.5"></path><path d="M1450.25 548.92L1259.09 513.48" stroke="rgba(255, 195, 113, 1)" stroke-width="1.5"></path><path d="M1450.25 548.92L1585.73 709.37" stroke="rgba(255, 195, 113, 1)" stroke-width="1.5"></path><path d="M1441.63 702.55L1441.63 702.55" stroke="rgba(255, 195, 113, 1)" stroke-width="1.5"></path><path d="M1441.63 702.55L1585.73 709.37" stroke="rgba(255, 195, 113, 1)" stroke-width="1.5"></path><path d="M1542.33 -78.45L1542.33 -78.45" stroke="rgba(255, 195, 113, 1)" stroke-width="1.5"></path><path d="M1542.33 -78.45L1565.07 57.95" stroke="rgba(255, 195, 113, 1)" stroke-width="1.5"></path><path d="M1542.33 -78.45L1443.62 64.88" stroke="rgba(255, 195, 113, 1)" stroke-width="1.5"></path><path d="M1542.33 -78.45L1539.53 231.37" stroke="rgba(255, 195, 113, 1)" stroke-width="1.5"></path><path d="M1542.33 -78.45L1419.78 224.02" stroke="rgba(255, 195, 113, 1)" stroke-width="1.5"></path><path d="M1565.07 57.95L1565.07 57.95" stroke="rgba(255, 195, 113, 1)" stroke-width="1.5"></path><path d="M1565.07 57.95L1539.53 231.37" stroke="rgba(255, 195, 113, 1)" stroke-width="1.5"></path><path d="M1565.07 57.95L1419.78 224.02" stroke="rgba(255, 195, 113, 1)" stroke-width="1.5"></path><path d="M1565.07 57.95L1554.8 351.61" stroke="rgba(255, 195, 113, 1)" stroke-width="1.5"></path><path d="M1565.07 57.95L1289.07 -99.19" stroke="rgba(255, 195, 113, 1)" stroke-width="1.5"></path><path d="M1539.53 231.37L1539.53 231.37" stroke="rgba(255, 195, 113, 1)" stroke-width="1.5"></path><path d="M1539.53 231.37L1554.8 351.61" stroke="rgba(255, 195, 113, 1)" stroke-width="1.5"></path><path d="M1539.53 231.37L1443.62 64.88" stroke="rgba(255, 195, 113, 1)" stroke-width="1.5"></path><path d="M1539.53 231.37L1255.31 244.55" stroke="rgba(255, 195, 113, 1)" stroke-width="1.5"></path><path d="M1554.8 351.61L1554.8 351.61" stroke="rgba(255, 195, 113, 1)" stroke-width="1.5"></path><path d="M1554.8 351.61L1450.25 548.92" stroke="rgba(255, 195, 113, 1)" stroke-width="1.5"></path><path d="M1554.8 351.61L1443.62 64.88" stroke="rgba(255, 195, 113, 1)" stroke-width="1.5"></path><path d="M1585.73 709.37L1585.73 709.37" stroke="rgba(255, 195, 113, 1)" stroke-width="1.5"></path><path d="M1585.73 709.37L1285.12 696.94" stroke="rgba(255, 195, 113, 1)" stroke-width="1.5"></path><path d="M1585.73 709.37L1554.8 351.61" stroke="rgba(255, 195, 113, 1)" stroke-width="1.5"></path><path d="M1585.73 709.37L1444.7 358.03" stroke="rgba(255, 195, 113, 1)" stroke-width="1.5"></path><circle r="5" cx="-40.18" cy="369.17" fill="rgba(255, 195, 113, 1)"></circle><circle r="5" cx="-76.15" cy="559.61" fill="rgba(255, 195, 113, 1)"></circle><circle r="5" cx="-85.57" cy="638.42" fill="rgba(255, 195, 113, 1)"></circle><circle r="5" cx="72.77" cy="401.91" fill="rgba(255, 195, 113, 1)"></circle><circle r="5" cx="37.98" cy="530.36" fill="rgba(255, 195, 113, 1)"></circle><circle r="5" cx="72.52" cy="641.78" fill="rgba(255, 195, 113, 1)"></circle><circle r="5" cx="261.13" cy="343.72" fill="rgba(255, 195, 113, 1)"></circle><circle r="5" cx="229.16" cy="560.83" fill="rgba(255, 195, 113, 1)"></circle><circle r="5" cx="246.18" cy="695.7" fill="rgba(255, 195, 113, 1)"></circle><circle r="5" cx="380.1" cy="354.34" fill="rgba(255, 195, 113, 1)"></circle><circle r="5" cx="364.34" cy="510.87" fill="rgba(255, 195, 113, 1)"></circle><circle r="5" cx="394.47" cy="675.64" fill="rgba(255, 195, 113, 1)"></circle><circle r="5" cx="550.39" cy="349.22" fill="rgba(255, 195, 113, 1)"></circle><circle r="5" cx="505.68" cy="522.27" fill="rgba(255, 195, 113, 1)"></circle><circle r="5" cx="549.56" cy="693.01" fill="rgba(255, 195, 113, 1)"></circle><circle r="5" cx="649.75" cy="531.16" fill="rgba(255, 195, 113, 1)"></circle><circle r="5" cx="683.3" cy="658.69" fill="rgba(255, 195, 113, 1)"></circle><circle r="5" cx="818.35" cy="233.95" fill="rgba(255, 195, 113, 1)"></circle><circle r="5" cx="801.07" cy="373.33" fill="rgba(255, 195, 113, 1)"></circle><circle r="5" cx="792.36" cy="506.75" fill="rgba(255, 195, 113, 1)"></circle><circle r="5" cx="813.53" cy="711.86" fill="rgba(255, 195, 113, 1)"></circle><circle r="5" cx="955.19" cy="-102.21" fill="rgba(255, 195, 113, 1)"></circle><circle r="5" cx="957.81" cy="75.48" fill="rgba(255, 195, 113, 1)"></circle><circle r="5" cx="1001.77" cy="389.89" fill="rgba(255, 195, 113, 1)"></circle><circle r="5" cx="985.48" cy="491.91" fill="rgba(255, 195, 113, 1)"></circle><circle r="5" cx="953.03" cy="663.89" fill="rgba(255, 195, 113, 1)"></circle><circle r="5" cx="1139.49" cy="-64.07" fill="rgba(255, 195, 113, 1)"></circle><circle r="5" cx="1152" cy="48.9" fill="rgba(255, 195, 113, 1)"></circle><circle r="5" cx="1122.62" cy="252.61" fill="rgba(255, 195, 113, 1)"></circle><circle r="5" cx="1117.87" cy="359.79" fill="rgba(255, 195, 113, 1)"></circle><circle r="5" cx="1124.75" cy="532.58" fill="rgba(255, 195, 113, 1)"></circle><circle r="5" cx="1112.1" cy="680.6" fill="rgba(255, 195, 113, 1)"></circle><circle r="5" cx="1289.07" cy="-99.19" fill="rgba(255, 195, 113, 1)"></circle><circle r="5" cx="1243.12" cy="93.11" fill="rgba(255, 195, 113, 1)"></circle><circle r="5" cx="1255.31" cy="244.55" fill="rgba(255, 195, 113, 1)"></circle><circle r="5" cx="1242.41" cy="387.02" fill="rgba(255, 195, 113, 1)"></circle><circle r="5" cx="1259.09" cy="513.48" fill="rgba(255, 195, 113, 1)"></circle><circle r="5" cx="1285.12" cy="696.94" fill="rgba(255, 195, 113, 1)"></circle><circle r="5" cx="1443.62" cy="64.88" fill="rgba(255, 195, 113, 1)"></circle><circle r="5" cx="1419.78" cy="224.02" fill="rgba(255, 195, 113, 1)"></circle><circle r="5" cx="1444.7" cy="358.03" fill="rgba(255, 195, 113, 1)"></circle><circle r="5" cx="1450.25" cy="548.92" fill="rgba(255, 195, 113, 1)"></circle><circle r="5" cx="1441.63" cy="702.55" fill="rgba(255, 195, 113, 1)"></circle><circle r="5" cx="1542.33" cy="-78.45" fill="rgba(255, 195, 113, 1)"></circle><circle r="5" cx="1565.07" cy="57.95" fill="rgba(255, 195, 113, 1)"></circle><circle r="5" cx="1539.53" cy="231.37" fill="rgba(255, 195, 113, 1)"></circle><circle r="5" cx="1554.8" cy="351.61" fill="rgba(255, 195, 113, 1)"></circle><circle r="5" cx="1585.73" cy="709.37" fill="rgba(255, 195, 113, 1)"></circle><path d="M43.89 647.99L43.89 647.99" stroke="hsl(354.79999999999995, 100%, 89.2%)" stroke-width="1.5"></path><path d="M43.89 647.99L-39.15 708.99" stroke="hsl(354.79999999999995, 100%, 89.2%)" stroke-width="1.5"></path><path d="M43.89 647.99L-70.41 509.2" stroke="hsl(354.79999999999995, 100%, 89.2%)" stroke-width="1.5"></path><path d="M43.89 647.99L242.23 644.89" stroke="hsl(354.79999999999995, 100%, 89.2%)" stroke-width="1.5"></path><path d="M43.89 647.99L233.94 502.57" stroke="hsl(354.79999999999995, 100%, 89.2%)" stroke-width="1.5"></path><path d="M43.89 647.99L345.77 528.73" stroke="hsl(354.79999999999995, 100%, 89.2%)" stroke-width="1.5"></path><path d="M233.94 502.57L233.94 502.57" stroke="hsl(354.79999999999995, 100%, 89.2%)" stroke-width="1.5"></path><path d="M233.94 502.57L345.77 528.73" stroke="hsl(354.79999999999995, 100%, 89.2%)" stroke-width="1.5"></path><path d="M233.94 502.57L242.23 644.89" stroke="hsl(354.79999999999995, 100%, 89.2%)" stroke-width="1.5"></path><path d="M233.94 502.57L395.54 696.02" stroke="hsl(354.79999999999995, 100%, 89.2%)" stroke-width="1.5"></path><path d="M233.94 502.57L-70.41 509.2" stroke="hsl(354.79999999999995, 100%, 89.2%)" stroke-width="1.5"></path><path d="M233.94 502.57L498.43 691.22" stroke="hsl(354.79999999999995, 100%, 89.2%)" stroke-width="1.5"></path><path d="M395.54 696.02L395.54 696.02" stroke="hsl(354.79999999999995, 100%, 89.2%)" stroke-width="1.5"></path><path d="M395.54 696.02L498.43 691.22" stroke="hsl(354.79999999999995, 100%, 89.2%)" stroke-width="1.5"></path><path d="M395.54 696.02L242.23 644.89" stroke="hsl(354.79999999999995, 100%, 89.2%)" stroke-width="1.5"></path><path d="M395.54 696.02L345.77 528.73" stroke="hsl(354.79999999999995, 100%, 89.2%)" stroke-width="1.5"></path><path d="M957.56 404.89L957.56 404.89" stroke="hsl(354.79999999999995, 100%, 89.2%)" stroke-width="1.5"></path><path d="M957.56 404.89L988.31 543.14" stroke="hsl(354.79999999999995, 100%, 89.2%)" stroke-width="1.5"></path><path d="M957.56 404.89L809.53 368.46" stroke="hsl(354.79999999999995, 100%, 89.2%)" stroke-width="1.5"></path><path d="M957.56 404.89L1122.33 491.35" stroke="hsl(354.79999999999995, 100%, 89.2%)" stroke-width="1.5"></path><path d="M957.56 404.89L1156.73 371.04" stroke="hsl(354.79999999999995, 100%, 89.2%)" stroke-width="1.5"></path><path d="M1105.93 649.31L1105.93 649.31" stroke="hsl(354.79999999999995, 100%, 89.2%)" stroke-width="1.5"></path><path d="M1105.93 649.31L1000.43 657.86" stroke="hsl(354.79999999999995, 100%, 89.2%)" stroke-width="1.5"></path><path d="M1105.93 649.31L988.31 543.14" stroke="hsl(354.79999999999995, 100%, 89.2%)" stroke-width="1.5"></path><path d="M1244.19 553.6L1244.19 553.6" stroke="hsl(354.79999999999995, 100%, 89.2%)" stroke-width="1.5"></path><path d="M1244.19 553.6L1122.33 491.35" stroke="hsl(354.79999999999995, 100%, 89.2%)" stroke-width="1.5"></path><path d="M1244.19 553.6L1258.33 701.63" stroke="hsl(354.79999999999995, 100%, 89.2%)" stroke-width="1.5"></path><path d="M1411.2 499.51L1411.2 499.51" stroke="hsl(354.79999999999995, 100%, 89.2%)" stroke-width="1.5"></path><path d="M1411.2 499.51L1408.39 371.25" stroke="hsl(354.79999999999995, 100%, 89.2%)" stroke-width="1.5"></path><path d="M1411.2 499.51L1561.16 527.68" stroke="hsl(354.79999999999995, 100%, 89.2%)" stroke-width="1.5"></path><path d="M-70.41 509.2L-70.41 509.2" stroke="hsl(354.79999999999995, 100%, 89.2%)" stroke-width="1.5"></path><path d="M-70.41 509.2L-39.15 708.99" stroke="hsl(354.79999999999995, 100%, 89.2%)" stroke-width="1.5"></path><path d="M-39.15 708.99L-39.15 708.99" stroke="hsl(354.79999999999995, 100%, 89.2%)" stroke-width="1.5"></path><path d="M-39.15 708.99L242.23 644.89" stroke="hsl(354.79999999999995, 100%, 89.2%)" stroke-width="1.5"></path><path d="M-39.15 708.99L233.94 502.57" stroke="hsl(354.79999999999995, 100%, 89.2%)" stroke-width="1.5"></path><path d="M242.23 644.89L242.23 644.89" stroke="hsl(354.79999999999995, 100%, 89.2%)" stroke-width="1.5"></path><path d="M242.23 644.89L345.77 528.73" stroke="hsl(354.79999999999995, 100%, 89.2%)" stroke-width="1.5"></path><path d="M345.77 528.73L345.77 528.73" stroke="hsl(354.79999999999995, 100%, 89.2%)" stroke-width="1.5"></path><path d="M498.43 691.22L498.43 691.22" stroke="hsl(354.79999999999995, 100%, 89.2%)" stroke-width="1.5"></path><path d="M498.43 691.22L706.36 699.96" stroke="hsl(354.79999999999995, 100%, 89.2%)" stroke-width="1.5"></path><path d="M695.39 400.94L695.39 400.94" stroke="hsl(354.79999999999995, 100%, 89.2%)" stroke-width="1.5"></path><path d="M695.39 400.94L685.72 507.17" stroke="hsl(354.79999999999995, 100%, 89.2%)" stroke-width="1.5"></path><path d="M695.39 400.94L809.53 368.46" stroke="hsl(354.79999999999995, 100%, 89.2%)" stroke-width="1.5"></path><path d="M685.72 507.17L685.72 507.17" stroke="hsl(354.79999999999995, 100%, 89.2%)" stroke-width="1.5"></path><path d="M685.72 507.17L798.8 561.38" stroke="hsl(354.79999999999995, 100%, 89.2%)" stroke-width="1.5"></path><path d="M685.72 507.17L809.53 368.46" stroke="hsl(354.79999999999995, 100%, 89.2%)" stroke-width="1.5"></path><path d="M706.36 699.96L706.36 699.96" stroke="hsl(354.79999999999995, 100%, 89.2%)" stroke-width="1.5"></path><path d="M706.36 699.96L846.74 646.26" stroke="hsl(354.79999999999995, 100%, 89.2%)" stroke-width="1.5"></path><path d="M706.36 699.96L798.8 561.38" stroke="hsl(354.79999999999995, 100%, 89.2%)" stroke-width="1.5"></path><path d="M706.36 699.96L685.72 507.17" stroke="hsl(354.79999999999995, 100%, 89.2%)" stroke-width="1.5"></path><path d="M809.53 368.46L809.53 368.46" stroke="hsl(354.79999999999995, 100%, 89.2%)" stroke-width="1.5"></path><path d="M809.53 368.46L798.8 561.38" stroke="hsl(354.79999999999995, 100%, 89.2%)" stroke-width="1.5"></path><path d="M798.8 561.38L798.8 561.38" stroke="hsl(354.79999999999995, 100%, 89.2%)" stroke-width="1.5"></path><path d="M798.8 561.38L846.74 646.26" stroke="hsl(354.79999999999995, 100%, 89.2%)" stroke-width="1.5"></path><path d="M798.8 561.38L988.31 543.14" stroke="hsl(354.79999999999995, 100%, 89.2%)" stroke-width="1.5"></path><path d="M846.74 646.26L846.74 646.26" stroke="hsl(354.79999999999995, 100%, 89.2%)" stroke-width="1.5"></path><path d="M846.74 646.26L1000.43 657.86" stroke="hsl(354.79999999999995, 100%, 89.2%)" stroke-width="1.5"></path><path d="M846.74 646.26L988.31 543.14" stroke="hsl(354.79999999999995, 100%, 89.2%)" stroke-width="1.5"></path><path d="M846.74 646.26L685.72 507.17" stroke="hsl(354.79999999999995, 100%, 89.2%)" stroke-width="1.5"></path><path d="M846.74 646.26L1105.93 649.31" stroke="hsl(354.79999999999995, 100%, 89.2%)" stroke-width="1.5"></path><path d="M988.31 543.14L988.31 543.14" stroke="hsl(354.79999999999995, 100%, 89.2%)" stroke-width="1.5"></path><path d="M988.31 543.14L1000.43 657.86" stroke="hsl(354.79999999999995, 100%, 89.2%)" stroke-width="1.5"></path><path d="M1000.43 657.86L1000.43 657.86" stroke="hsl(354.79999999999995, 100%, 89.2%)" stroke-width="1.5"></path><path d="M1000.43 657.86L1122.33 491.35" stroke="hsl(354.79999999999995, 100%, 89.2%)" stroke-width="1.5"></path><path d="M1116.92 239.46L1116.92 239.46" stroke="hsl(354.79999999999995, 100%, 89.2%)" stroke-width="1.5"></path><path d="M1116.92 239.46L1156.73 371.04" stroke="hsl(354.79999999999995, 100%, 89.2%)" stroke-width="1.5"></path><path d="M1116.92 239.46L1256.92 201.48" stroke="hsl(354.79999999999995, 100%, 89.2%)" stroke-width="1.5"></path><path d="M1116.92 239.46L1294.64 101.84" stroke="hsl(354.79999999999995, 100%, 89.2%)" stroke-width="1.5"></path><path d="M1156.73 371.04L1156.73 371.04" stroke="hsl(354.79999999999995, 100%, 89.2%)" stroke-width="1.5"></path><path d="M1156.73 371.04L1122.33 491.35" stroke="hsl(354.79999999999995, 100%, 89.2%)" stroke-width="1.5"></path><path d="M1156.73 371.04L1310.3 374.23" stroke="hsl(354.79999999999995, 100%, 89.2%)" stroke-width="1.5"></path><path d="M1122.33 491.35L1122.33 491.35" stroke="hsl(354.79999999999995, 100%, 89.2%)" stroke-width="1.5"></path><path d="M1122.33 491.35L988.31 543.14" stroke="hsl(354.79999999999995, 100%, 89.2%)" stroke-width="1.5"></path><path d="M1122.33 491.35L1105.93 649.31" stroke="hsl(354.79999999999995, 100%, 89.2%)" stroke-width="1.5"></path><path d="M1257.45 -39.41L1257.45 -39.41" stroke="hsl(354.79999999999995, 100%, 89.2%)" stroke-width="1.5"></path><path d="M1257.45 -39.41L1294.64 101.84" stroke="hsl(354.79999999999995, 100%, 89.2%)" stroke-width="1.5"></path><path d="M1257.45 -39.41L1427.58 -76.15" stroke="hsl(354.79999999999995, 100%, 89.2%)" stroke-width="1.5"></path><path d="M1294.64 101.84L1294.64 101.84" stroke="hsl(354.79999999999995, 100%, 89.2%)" stroke-width="1.5"></path><path d="M1294.64 101.84L1256.92 201.48" stroke="hsl(354.79999999999995, 100%, 89.2%)" stroke-width="1.5"></path><path d="M1294.64 101.84L1432.9 96.57" stroke="hsl(354.79999999999995, 100%, 89.2%)" stroke-width="1.5"></path><path d="M1294.64 101.84L1404.26 230.86" stroke="hsl(354.79999999999995, 100%, 89.2%)" stroke-width="1.5"></path><path d="M1256.92 201.48L1256.92 201.48" stroke="hsl(354.79999999999995, 100%, 89.2%)" stroke-width="1.5"></path><path d="M1256.92 201.48L1404.26 230.86" stroke="hsl(354.79999999999995, 100%, 89.2%)" stroke-width="1.5"></path><path d="M1256.92 201.48L1310.3 374.23" stroke="hsl(354.79999999999995, 100%, 89.2%)" stroke-width="1.5"></path><path d="M1256.92 201.48L1156.73 371.04" stroke="hsl(354.79999999999995, 100%, 89.2%)" stroke-width="1.5"></path><path d="M1310.3 374.23L1310.3 374.23" stroke="hsl(354.79999999999995, 100%, 89.2%)" stroke-width="1.5"></path><path d="M1310.3 374.23L1408.39 371.25" stroke="hsl(354.79999999999995, 100%, 89.2%)" stroke-width="1.5"></path><path d="M1310.3 374.23L1411.2 499.51" stroke="hsl(354.79999999999995, 100%, 89.2%)" stroke-width="1.5"></path><path d="M1310.3 374.23L1404.26 230.86" stroke="hsl(354.79999999999995, 100%, 89.2%)" stroke-width="1.5"></path><path d="M1258.33 701.63L1258.33 701.63" stroke="hsl(354.79999999999995, 100%, 89.2%)" stroke-width="1.5"></path><path d="M1258.33 701.63L1105.93 649.31" stroke="hsl(354.79999999999995, 100%, 89.2%)" stroke-width="1.5"></path><path d="M1258.33 701.63L1423.09 704.06" stroke="hsl(354.79999999999995, 100%, 89.2%)" stroke-width="1.5"></path><path d="M1258.33 701.63L1122.33 491.35" stroke="hsl(354.79999999999995, 100%, 89.2%)" stroke-width="1.5"></path><path d="M1427.58 -76.15L1427.58 -76.15" stroke="hsl(354.79999999999995, 100%, 89.2%)" stroke-width="1.5"></path><path d="M1427.58 -76.15L1432.9 96.57" stroke="hsl(354.79999999999995, 100%, 89.2%)" stroke-width="1.5"></path><path d="M1432.9 96.57L1432.9 96.57" stroke="hsl(354.79999999999995, 100%, 89.2%)" stroke-width="1.5"></path><path d="M1432.9 96.57L1404.26 230.86" stroke="hsl(354.79999999999995, 100%, 89.2%)" stroke-width="1.5"></path><path d="M1404.26 230.86L1404.26 230.86" stroke="hsl(354.79999999999995, 100%, 89.2%)" stroke-width="1.5"></path><path d="M1404.26 230.86L1408.39 371.25" stroke="hsl(354.79999999999995, 100%, 89.2%)" stroke-width="1.5"></path><path d="M1408.39 371.25L1408.39 371.25" stroke="hsl(354.79999999999995, 100%, 89.2%)" stroke-width="1.5"></path><path d="M1423.09 704.06L1423.09 704.06" stroke="hsl(354.79999999999995, 100%, 89.2%)" stroke-width="1.5"></path><path d="M1423.09 704.06L1566.05 644.55" stroke="hsl(354.79999999999995, 100%, 89.2%)" stroke-width="1.5"></path><path d="M1423.09 704.06L1411.2 499.51" stroke="hsl(354.79999999999995, 100%, 89.2%)" stroke-width="1.5"></path><path d="M1423.09 704.06L1561.16 527.68" stroke="hsl(354.79999999999995, 100%, 89.2%)" stroke-width="1.5"></path><path d="M1423.09 704.06L1244.19 553.6" stroke="hsl(354.79999999999995, 100%, 89.2%)" stroke-width="1.5"></path><path d="M1423.09 704.06L1105.93 649.31" stroke="hsl(354.79999999999995, 100%, 89.2%)" stroke-width="1.5"></path><path d="M1603.17 -99.46L1603.17 -99.46" stroke="hsl(354.79999999999995, 100%, 89.2%)" stroke-width="1.5"></path><path d="M1603.17 -99.46L1427.58 -76.15" stroke="hsl(354.79999999999995, 100%, 89.2%)" stroke-width="1.5"></path><path d="M1603.17 -99.46L1604.41 97.85" stroke="hsl(354.79999999999995, 100%, 89.2%)" stroke-width="1.5"></path><path d="M1604.41 97.85L1604.41 97.85" stroke="hsl(354.79999999999995, 100%, 89.2%)" stroke-width="1.5"></path><path d="M1604.41 97.85L1556.47 190.66" stroke="hsl(354.79999999999995, 100%, 89.2%)" stroke-width="1.5"></path><path d="M1604.41 97.85L1432.9 96.57" stroke="hsl(354.79999999999995, 100%, 89.2%)" stroke-width="1.5"></path><path d="M1556.47 190.66L1556.47 190.66" stroke="hsl(354.79999999999995, 100%, 89.2%)" stroke-width="1.5"></path><path d="M1556.47 190.66L1432.9 96.57" stroke="hsl(354.79999999999995, 100%, 89.2%)" stroke-width="1.5"></path><path d="M1556.47 190.66L1404.26 230.86" stroke="hsl(354.79999999999995, 100%, 89.2%)" stroke-width="1.5"></path><path d="M1575.1 363.02L1575.1 363.02" stroke="hsl(354.79999999999995, 100%, 89.2%)" stroke-width="1.5"></path><path d="M1575.1 363.02L1561.16 527.68" stroke="hsl(354.79999999999995, 100%, 89.2%)" stroke-width="1.5"></path><path d="M1575.1 363.02L1408.39 371.25" stroke="hsl(354.79999999999995, 100%, 89.2%)" stroke-width="1.5"></path><path d="M1575.1 363.02L1556.47 190.66" stroke="hsl(354.79999999999995, 100%, 89.2%)" stroke-width="1.5"></path><path d="M1575.1 363.02L1411.2 499.51" stroke="hsl(354.79999999999995, 100%, 89.2%)" stroke-width="1.5"></path><path d="M1561.16 527.68L1561.16 527.68" stroke="hsl(354.79999999999995, 100%, 89.2%)" stroke-width="1.5"></path><path d="M1561.16 527.68L1566.05 644.55" stroke="hsl(354.79999999999995, 100%, 89.2%)" stroke-width="1.5"></path><path d="M1566.05 644.55L1566.05 644.55" stroke="hsl(354.79999999999995, 100%, 89.2%)" stroke-width="1.5"></path><path d="M1566.05 644.55L1411.2 499.51" stroke="hsl(354.79999999999995, 100%, 89.2%)" stroke-width="1.5"></path><path d="M1566.05 644.55L1575.1 363.02" stroke="hsl(354.79999999999995, 100%, 89.2%)" stroke-width="1.5"></path><path d="M1566.05 644.55L1258.33 701.63" stroke="hsl(354.79999999999995, 100%, 89.2%)" stroke-width="1.5"></path><path d="M1566.05 644.55L1408.39 371.25" stroke="hsl(354.79999999999995, 100%, 89.2%)" stroke-width="1.5"></path><circle r="25" cx="43.89" cy="647.99" fill="url(#SvgjsRadialGradient1007)"></circle><circle r="25" cx="233.94" cy="502.57" fill="url(#SvgjsRadialGradient1007)"></circle><circle r="25" cx="395.54" cy="696.02" fill="url(#SvgjsRadialGradient1007)"></circle><circle r="25" cx="957.56" cy="404.89" fill="url(#SvgjsRadialGradient1007)"></circle><circle r="25" cx="1105.93" cy="649.31" fill="url(#SvgjsRadialGradient1007)"></circle><circle r="25" cx="1244.19" cy="553.6" fill="url(#SvgjsRadialGradient1007)"></circle><circle r="25" cx="1411.2" cy="499.51" fill="url(#SvgjsRadialGradient1007)"></circle><circle r="5" cx="-70.41" cy="509.2" fill="#ffafb6"></circle><circle r="5" cx="-39.15" cy="708.99" fill="#ffafb6"></circle><circle r="5" cx="242.23" cy="644.89" fill="#ffafb6"></circle><circle r="5" cx="345.77" cy="528.73" fill="#ffafb6"></circle><circle r="5" cx="498.43" cy="691.22" fill="#ffafb6"></circle><circle r="5" cx="695.39" cy="400.94" fill="#ffafb6"></circle><circle r="5" cx="685.72" cy="507.17" fill="#ffafb6"></circle><circle r="5" cx="706.36" cy="699.96" fill="#ffafb6"></circle><circle r="5" cx="809.53" cy="368.46" fill="#ffafb6"></circle><circle r="5" cx="798.8" cy="561.38" fill="#ffafb6"></circle><circle r="5" cx="846.74" cy="646.26" fill="#ffafb6"></circle><circle r="5" cx="988.31" cy="543.14" fill="#ffafb6"></circle><circle r="5" cx="1000.43" cy="657.86" fill="#ffafb6"></circle><circle r="5" cx="1116.92" cy="239.46" fill="#ffafb6"></circle><circle r="5" cx="1156.73" cy="371.04" fill="#ffafb6"></circle><circle r="5" cx="1122.33" cy="491.35" fill="#ffafb6"></circle><circle r="5" cx="1257.45" cy="-39.41" fill="#ffafb6"></circle><circle r="5" cx="1294.64" cy="101.84" fill="#ffafb6"></circle><circle r="5" cx="1256.92" cy="201.48" fill="#ffafb6"></circle><circle r="5" cx="1310.3" cy="374.23" fill="#ffafb6"></circle><circle r="5" cx="1258.33" cy="701.63" fill="#ffafb6"></circle><circle r="5" cx="1427.58" cy="-76.15" fill="#ffafb6"></circle><circle r="5" cx="1432.9" cy="96.57" fill="#ffafb6"></circle><circle r="5" cx="1404.26" cy="230.86" fill="#ffafb6"></circle><circle r="5" cx="1408.39" cy="371.25" fill="#ffafb6"></circle><circle r="5" cx="1423.09" cy="704.06" fill="#ffafb6"></circle><circle r="5" cx="1603.17" cy="-99.46" fill="#ffafb6"></circle><circle r="5" cx="1604.41" cy="97.85" fill="#ffafb6"></circle><circle r="5" cx="1556.47" cy="190.66" fill="#ffafb6"></circle><circle r="5" cx="1575.1" cy="363.02" fill="#ffafb6"></circle><circle r="5" cx="1561.16" cy="527.68" fill="#ffafb6"></circle><circle r="5" cx="1566.05" cy="644.55" fill="#ffafb6"></circle></g><defs><mask id="SvgjsMask1006"><rect width="1440" height="560" fill="#ffffff"></rect></mask><radialGradient id="SvgjsRadialGradient1007"><stop stop-color="#ffffff" offset="0.1"></stop><stop stop-color="rgba(255, 95, 109, 1)" offset="0.2"></stop><stop stop-color="rgba(255, 95, 109, 0)" offset="1"></stop></radialGradient></defs></svg>