<svg xmlns="http://www.w3.org/2000/svg" version="1.1" xmlns:xlink="http://www.w3.org/1999/xlink" xmlns:svgjs="http://svgjs.com/svgjs" width="1440" height="560" preserveAspectRatio="none" viewBox="0 0 1440 560"><g mask="url(&quot;#SvgjsMask1000&quot;)" fill="none"><rect width="1440" height="560" x="0" y="0" fill="#0e2a47"></rect><path d="M375.81 189.21L404.97 189.21L404.97 218.37L375.81 218.37z" fill="#e73635"></path><path d="M1336.67 396.88 a10.69 10.69 0 1 0 21.38 0 a10.69 10.69 0 1 0 -21.38 0z" fill="#d3b714"></path><path d="M433.24 456.93a23.31 23.31 0 1 0 40.14-23.72z" stroke="#e73635"></path><path d="M1190.46 34.1L1215.34 34.1L1215.34 46.23L1190.46 46.23z" stroke="#037b0b"></path><path d="M245 509.07a17.7 17.7 0 1 0-14.55 32.27z" fill="#d3b714"></path><path d="M1239.1 536.02a45.95 45.95 0 1 0-91.65 6.73z" stroke="#037b0b"></path><path d="M371.46 275.7a15.33 15.33 0 1 0 30.66 0.12z" stroke="#d3b714"></path><path d="M421.04 217.43L422.21 217.43L422.21 252.06L421.04 252.06z" fill="#e73635"></path><path d="M1338.96 361.35L1342.57 361.35L1342.57 364.96L1338.96 364.96z" fill="#d3b714"></path><path d="M1403.66 269.14L1439.37 269.14L1439.37 314.28L1403.66 314.28z" stroke="#d3b714"></path><path d="M728.35 449.86 a13.62 13.62 0 1 0 27.24 0 a13.62 13.62 0 1 0 -27.24 0z" stroke="#d3b714"></path><path d="M150.16 420.61a33.48 33.48 0 1 0-51.73-42.51z" fill="#e73635"></path><path d="M218.94 190.89a24.62 24.62 0 1 0-41.89 25.9z" stroke="#037b0b"></path><path d="M1392.96 365.37a27.97 27.97 0 1 0-49.9 25.27z" stroke="#037b0b"></path><path d="M446.11 340.59L462.77 340.59L462.77 357.25L446.11 357.25z" stroke="#037b0b"></path><path d="M1120.05 459.76L1169.48 459.76L1169.48 499.06L1120.05 499.06z" stroke="#e73635"></path><path d="M804.28 368.6 a4.07 4.07 0 1 0 8.14 0 a4.07 4.07 0 1 0 -8.14 0z" stroke="#e73635"></path><path d="M744.05 409.63a27.3 27.3 0 1 0-33.89 42.81z" fill="#d3b714"></path><path d="M835.06 247.14 a11.08 11.08 0 1 0 22.16 0 a11.08 11.08 0 1 0 -22.16 0z" fill="#e73635"></path><path d="M370.78 9.9 a16.81 16.81 0 1 0 33.62 0 a16.81 16.81 0 1 0 -33.62 0z" fill="#e73635"></path><path d="M1072.34 157.04L1085.05 157.04L1085.05 169.75L1072.34 169.75z" stroke="#037b0b"></path><path d="M276.6 493.89 a40.07 40.07 0 1 0 80.14 0 a40.07 40.07 0 1 0 -80.14 0z" fill="#037b0b"></path><path d="M1382.18 132.56 a7.71 7.71 0 1 0 15.42 0 a7.71 7.71 0 1 0 -15.42 0z" stroke="#d3b714"></path><path d="M798.26 156.88L845.55 156.88L845.55 205.98L798.26 205.98z" fill="#d3b714"></path><path d="M255.74 31.02 a6.8 6.8 0 1 0 13.6 0 a6.8 6.8 0 1 0 -13.6 0z" stroke="#d3b714"></path><path d="M685.66 29.84L728.08 29.84L728.08 47.36L685.66 47.36z" stroke="#e73635"></path><path d="M530.32 90.27L562.08 90.27L562.08 131.65L530.32 131.65z" stroke="#e73635"></path><path d="M778.01 146.8a41.63 41.63 0 1 0 22.12 80.27z" fill="#e73635"></path><path d="M96.98 154.03L113.31 154.03L113.31 173.4L96.98 173.4z" stroke="#037b0b"></path><path d="M879.09 523.66 a38.15 38.15 0 1 0 76.3 0 a38.15 38.15 0 1 0 -76.3 0z" fill="#037b0b"></path><path d="M356.34 191.59L395.35 191.59L395.35 199.84L356.34 199.84z" stroke="#e73635"></path><path d="M1035.97 515.15a24.11 24.11 0 1 0-14.68 45.94z" fill="#037b0b"></path><path d="M661.48 285.81a11.48 11.48 0 1 0 22.84-2.42z" fill="#e73635"></path></g><defs><mask id="SvgjsMask1000"><rect width="1440" height="560" fill="#ffffff"></rect></mask></defs></svg>