<svg xmlns="http://www.w3.org/2000/svg" version="1.1" xmlns:xlink="http://www.w3.org/1999/xlink" xmlns:svgjs="http://svgjs.com/svgjs" width="1440" height="560" preserveAspectRatio="none" viewBox="0 0 1440 560"><g mask="url(&quot;#SvgjsMask1048&quot;)" fill="none"><rect width="1440" height="560" x="0" y="0" fill="rgba(255, 95, 109, 1)"></rect><path d="M0,587.45C108.351,567.864,150.846,436.104,233.561,363.428C300.699,304.439,400.942,281.327,439.934,200.911C479.158,120.017,443.426,26.521,440.488,-63.333C437.126,-166.174,487.727,-286.48,421.425,-365.167C355.239,-443.716,224.378,-400.16,127.622,-434.641C22.373,-472.149,-59.986,-600.055,-169.006,-575.581C-276.745,-551.395,-312.813,-415.587,-372.13,-322.452C-423.012,-242.561,-484.517,-165.065,-490.658,-70.546C-496.602,20.948,-436.885,99.002,-405.1,185.003C-370.274,279.232,-366.226,388.162,-294.958,458.964C-217.304,536.109,-107.714,606.921,0,587.45" fill="#ff1d30"></path><path d="M1440 953.227C1513.63 954.451 1539.275 849.982 1596.871 804.096 1646.491 764.565 1727.585 761.08 1753.738 703.279 1779.892 645.478 1735.497 581.607 1725.9180000000001 518.891 1716.446 456.876 1736.153 386.265 1697.741 336.666 1659.029 286.68 1585.038 288.382 1527.354 262.501 1458.34 231.53699999999998 1397.497 146.815 1325.366 169.59300000000002 1252.815 192.50400000000002 1259.785 303.216 1211.703 362.18 1165.812 418.457 1072.685 434.539 1052.446 504.278 1032.136 574.263 1065.324 653.345 1110.643 710.412 1152.289 762.854 1232.544 759.196 1286.446 798.935 1346.057 842.883 1365.95 951.996 1440 953.227" fill="#ffa2aa"></path></g><defs><mask id="SvgjsMask1048"><rect width="1440" height="560" fill="#ffffff"></rect></mask></defs></svg>