<?xml version="1.0" encoding="utf-8"?><svg xmlns="http://www.w3.org/2000/svg" xmlns:xlink="http://www.w3.org/1999/xlink" width="2560" height="1363" preserveAspectRatio="xMidYMid" viewBox="0 0 2560 1363" style="z-index:1;margin-right:-2px;display:block;background-color:rgb(216, 240, 91);animation-play-state:paused" ><g transform="translate(1280,681.5) scale(1,1) translate(-1280,-681.5)" style="animation-play-state:paused" ><linearGradient id="lg-0.9870289518254338" x1="0" x2="1" y1="0" y2="0" style="animation-play-state:paused" ><stop stop-color="#0055a5" offset="0" style="animation-play-state:paused" ></stop>

  
<stop stop-color="#45aee7" offset="1" style="animation-play-state:paused" ></stop></linearGradient>
<path d="M0 0L0 1147.9837646484375Q256 1088.6025390625 512 1061.1839599609375T1024 1101.9527587890625T1536 859.8561401367188T2048 697.2152709960938T2560 614.5670166015625L2560 0Z" fill="url(#lg-0.9870289518254338)" opacity="0.4" style="opacity:0.4000000059604645;animation-play-state:paused" ></path>
<path d="M0 0L0 1285.927001953125Q256 1114.4654541015625 512 1090.0765380859375T1024 975.9066772460938T1536 881.3819580078125T2048 714.5191040039062T2560 678.927001953125L2560 0Z" fill="url(#lg-0.9870289518254338)" opacity="0.4" style="opacity:0.4000000059604645;animation-play-state:paused" ></path>
<path d="M0 0L0 1282.2542724609375Q256 1174.016357421875 512 1156.7017822265625T1024 1029.6605224609375T1536 923.2588500976562T2048 782.1416015625T2560 493.1188049316406L2560 0Z" fill="url(#lg-0.9870289518254338)" opacity="0.4" style="opacity:0.4000000059604645;animation-play-state:paused" ></path>
<path d="M0 0L0 1286.72802734375Q256 1142.1019287109375 512 1114.5283203125T1024 1045.615234375T1536 830.838623046875T2048 745.676025390625T2560 643.4230346679688L2560 0Z" fill="url(#lg-0.9870289518254338)" opacity="0.4" style="opacity:0.4000000059604645;animation-play-state:paused" ></path>
<path d="M0 0L0 1244.2049560546875Q256 1078.3812255859375 512 1047.5836181640625T1024 952.364501953125T1536 876.7779541015625T2048 786.889892578125T2560 578.473876953125L2560 0Z" fill="url(#lg-0.9870289518254338)" opacity="0.4" style="opacity:0.4000000059604645;animation-play-state:paused" ></path></g></svg>