<svg xmlns="http://www.w3.org/2000/svg" version="1.1" xmlns:xlink="http://www.w3.org/1999/xlink" xmlns:svgjs="http://svgjs.com/svgjs" width="1440" height="560" preserveAspectRatio="none" viewBox="0 0 1440 560"><g mask="url(&quot;#SvgjsMask1018&quot;)" fill="none"><rect width="1440" height="560" x="0" y="0" fill="rgba(0, 0, 0, 1)"></rect><path d="M 0,64 C 57.6,98.8 172.8,235.4 288,238 C 403.2,240.6 460.8,73.4 576,77 C 691.2,80.6 748.8,245.8 864,256 C 979.2,266.2 1036.8,132.8 1152,128 C 1267.2,123.2 1382.4,211.2 1440,232L1440 560L0 560z" fill="rgba(255, 195, 113, 1)"></path><path d="M 0,383 C 96,410 288,538.2 480,518 C 672,497.8 768,280.2 960,282 C 1152,283.8 1344,478 1440,527L1440 560L0 560z" fill="rgba(255, 95, 109, 1)"></path></g><defs><mask id="SvgjsMask1018"><rect width="1440" height="560" fill="#ffffff"></rect></mask></defs></svg>